<svg xmlns="http://www.w3.org/2000/svg" xmlns:xlink="http://www.w3.org/1999/xlink" version="1.1" width="1000" height="1000" viewBox="0 0 1000 1000" xml:space="preserve">
<desc>Created with Fabric.js 3.5.0</desc>
<defs>
</defs>
<rect x="0" y="0" width="100%" height="100%" fill="rgba(255,255,255,0)"/>
<g transform="matrix(1.7756 0 0 1.7756 500.0081 500.0081)" id="800652">
<g style="" vector-effect="non-scaling-stroke">
		<g transform="matrix(1 0 0 1 1.052 -28.622)" id="Layer_1">
<path style="stroke: none; stroke-width: 1; stroke-dasharray: none; stroke-linecap: butt; stroke-dashoffset: 0; stroke-linejoin: miter; stroke-miterlimit: 4; is-custom-font: none; font-file-url: none; fill: rgb(255,255,255); fill-rule: nonzero; opacity: 1;" transform=" translate(-257.052, -227.378)" d="M 257.052 179.941 c -26.157 0 -47.437 21.282 -47.437 47.437 c 0 26.155 21.28 47.437 47.437 47.437 c 26.154 0 47.437 -21.282 47.437 -47.437 C 304.489 201.223 283.206 179.941 257.052 179.941 z M 257.052 255.84 c -15.695 0 -28.462 -12.767 -28.462 -28.462 c 0 -15.695 12.767 -28.462 28.462 -28.462 c 15.694 0 28.462 12.767 28.462 28.462 C 285.514 243.073 272.745 255.84 257.052 255.84 z" stroke-linecap="round"/>
</g>
		<g transform="matrix(1 0 0 1 1.052 75.74)" id="Layer_1">
<path style="stroke: none; stroke-width: 1; stroke-dasharray: none; stroke-linecap: butt; stroke-dashoffset: 0; stroke-linejoin: miter; stroke-miterlimit: 4; is-custom-font: none; font-file-url: none; fill: rgb(255,255,255); fill-rule: nonzero; opacity: 1;" transform=" translate(-257.052, -331.74)" d="M 257.052 293.79 c -20.925 0 -37.95 17.024 -37.95 37.95 c 0 20.924 17.024 37.95 37.95 37.95 c 20.924 0 37.95 -17.026 37.95 -37.95 C 295.001 310.815 277.975 293.79 257.052 293.79 z M 257.052 350.714 c -10.466 0 -18.975 -8.51 -18.975 -18.975 c 0 -10.465 8.509 -18.975 18.975 -18.975 c 10.465 0 18.975 8.51 18.975 18.975 C 276.026 342.204 267.517 350.714 257.052 350.714 z" stroke-linecap="round"/>
</g>
		<g transform="matrix(1 0 0 1 0.0005 -0.0001)" id="Layer_1">
<path style="stroke: none; stroke-width: 1; stroke-dasharray: none; stroke-linecap: butt; stroke-dashoffset: 0; stroke-linejoin: miter; stroke-miterlimit: 4; is-custom-font: none; font-file-url: none; fill: rgb(255,255,255); fill-rule: nonzero; opacity: 1;" transform=" translate(-256.0005, -255.9999)" d="M 378.097 307.252 L 332.5 243.049 C 328.684 111.797 267.728 8.737 265.05 4.28 c -3.428 -5.707 -12.766 -5.707 -16.194 0 c -2.679 4.456 -63.734 107.516 -67.55 238.768 l -46.368 64.203 c -1.148 1.608 -2.273 3.535 -2.273 5.513 v 171.037 c 0 4.183 3.264 7.871 7.271 9.084 c 0.908 0.273 2.092 0.403 3.005 0.403 c 3.117 0 6.241 -1.543 8.034 -4.235 l 46.352 -69.643 C 210.008 474.236 230.047 512 257.018 512 c 26.971 0 46.993 -37.764 59.676 -92.589 l 46.294 69.643 c 1.793 2.693 4.79 4.235 7.908 4.235 c 0.913 0 1.311 -0.13 2.219 -0.403 c 4.007 -1.214 6.221 -4.901 6.221 -9.084 V 312.765 C 379.336 310.787 379.246 308.86 378.097 307.252 z M 151.639 452.389 V 315.803 l 29.202 -40.147 c 0.875 41.177 4.207 81.807 10.45 117.458 L 151.639 452.389 z M 257.052 493.025 c -23.77 0 -56.924 -90.232 -56.924 -237.185 c 0 -103.217 39.469 -192.338 56.924 -226.697 c 17.454 34.36 56.924 123.48 56.924 226.697 C 313.976 402.793 280.82 493.025 257.052 493.025 z M 360.361 452.389 l -38.864 -59.274 c 6.243 -35.651 9.575 -76.28 10.45 -117.458 l 28.415 40.147 V 452.389 z" stroke-linecap="round"/>
</g>
</g>
</g>
</svg>